<svg xmlns="http://www.w3.org/2000/svg" viewBox="0 0 128 128" fill="none">
  <defs>
    <linearGradient id="g" x1="0" y1="0" x2="128" y2="128" gradientUnits="userSpaceOnUse">
      <stop stop-color="#ff5fa2" />
      <stop offset="0.5" stop-color="#8b5cf6" />
      <stop offset="1" stop-color="#2dd4bf" />
    </linearGradient>
  </defs>
  <rect x="8" y="8" width="112" height="112" rx="24" fill="url(#g)" />
  <!-- Dialogue bubble + question mark: questioning discourse -->
  <path
    d="M34 28c-9.9 0-18 8-18 18v28c0 10 8 18 18 18h32l14 12v-12h4c10 0 18-8 18-18V46c0-10-8-18-18-18H34Z"
    stroke="white"
    stroke-width="5"
    stroke-linejoin="round"
    fill="none"
  />
  <path
    d="M64 40c5.5 0 10 4.4 10 9.8 0 4-2.4 7-6 8.6v3.6"
    stroke="white"
    stroke-width="5"
    stroke-linecap="round"
    stroke-linejoin="round"
    fill="none"
  />
  <circle cx="64" cy="66" r="5" fill="white" />
</svg>
